<svg width="715" height="529" viewBox="0 0 715 529" fill="none" xmlns="http://www.w3.org/2000/svg">
<path d="M224.881 230.599L141.889 241.356L131.85 203.371H93.7004L85.3343 241.356L0 232.952L66.5942 9.07606L159.625 4.36996L224.881 230.599ZM125.826 151.94L113.11 93.4498L100.728 151.94H125.826Z" fill="black"/>
<path d="M487.075 0L471.681 246.734L395.382 250.096L396.051 120.006L361.583 224.885H332.134L305.697 131.099L305.363 240.011L228.06 242.364L231.406 10.0845L317.41 6.72301L351.544 117.989L397.055 0H487.075Z" fill="black"/>
<path d="M703.924 126.393C703.924 136.589 702.753 146.449 700.41 155.974C698.068 165.386 694.666 174.238 690.204 182.53C685.853 190.821 680.499 198.441 674.141 205.388C667.894 212.223 660.811 218.106 652.891 223.036C645.082 227.966 636.549 231.832 627.291 234.633C618.032 237.322 608.216 238.667 597.842 238.667C587.803 238.667 578.209 237.378 569.062 234.801C560.027 232.224 551.549 228.638 543.63 224.044C535.71 219.338 528.515 213.736 522.045 207.237C515.687 200.626 510.221 193.342 505.647 185.387C501.185 177.319 497.672 168.691 495.106 159.503C492.652 150.315 491.425 140.735 491.425 130.762C491.425 121.014 492.596 111.49 494.939 102.19C497.281 92.7775 500.628 83.9255 504.978 75.6338C509.44 67.3421 514.794 59.7227 521.041 52.7756C527.288 45.8285 534.259 39.8338 541.956 34.7916C549.765 29.7493 558.187 25.8276 567.222 23.0263C576.257 20.225 585.795 18.8244 595.834 18.8244C612.008 18.8244 626.733 21.3455 640.007 26.3878C653.393 31.4301 664.771 38.6573 674.141 48.0695C683.622 57.3697 690.929 68.6867 696.06 82.0207C701.303 95.2426 703.924 110.033 703.924 126.393ZM629.633 130.762C629.633 125.944 628.908 121.294 627.458 116.812C626.119 112.218 624.111 108.184 621.434 104.711C618.757 101.125 615.411 98.2679 611.395 96.139C607.491 93.898 602.973 92.7775 597.842 92.7775C592.599 92.7775 587.914 93.7299 583.787 95.6348C579.66 97.5396 576.09 100.173 573.078 103.534C570.178 106.784 567.947 110.649 566.385 115.131C564.824 119.501 564.043 124.152 564.043 129.082C564.043 133.788 564.712 138.494 566.051 143.2C567.389 147.906 569.397 152.164 572.074 155.974C574.751 159.783 578.042 162.865 581.946 165.218C585.962 167.571 590.591 168.747 595.834 168.747C601.077 168.747 605.762 167.739 609.889 165.722C614.128 163.593 617.697 160.792 620.598 157.318C623.498 153.733 625.729 149.643 627.291 145.049C628.852 140.455 629.633 135.693 629.633 130.762Z" fill="black"/>
<path d="M185.849 396.632C185.849 412.35 183.924 426.553 180.074 439.239C176.225 451.814 170.825 463.041 163.875 472.921C157.031 482.688 148.851 491.109 139.335 498.182C129.818 505.255 119.393 511.093 108.058 515.696C96.724 520.187 84.6411 523.555 71.8098 525.8C59.0853 527.933 45.9866 529 32.5137 529C27.4881 529 22.5694 528.888 17.7576 528.663C12.9459 528.326 8.02716 527.877 3.00154 527.316L7.49252 301.315C19.2546 297.385 31.3375 294.634 43.7411 293.063C56.2517 291.379 68.6554 290.536 80.9521 290.536C96.2428 290.536 110.304 292.95 123.135 297.778C135.967 302.606 147.034 309.566 156.336 318.66C165.639 327.754 172.857 338.869 177.989 352.005C183.229 365.141 185.849 380.016 185.849 396.632ZM120.088 407.411C120.195 401.348 119.553 395.51 118.163 389.896C116.88 384.283 114.688 379.343 111.587 375.077C108.593 370.698 104.744 367.218 100.039 364.635C95.3339 361.941 89.7202 360.481 83.1976 360.257L76.7819 464.669C83.1976 463.658 89.0252 461.469 94.2646 458.101C99.5041 454.62 103.995 450.41 107.738 445.47C111.587 440.418 114.528 434.861 116.559 428.798C118.698 422.623 119.874 416.28 120.088 409.768V407.411Z" fill="black"/>
<path d="M282.244 293.231L264.601 522.601L196.916 526.305V297.946L282.244 293.231Z" fill="black"/>
<path d="M466.287 345.922L457.02 520.013L389.581 526.175L353.545 432.967L347.882 527.973H289.966L294.599 345.922L358.95 342.84L403.481 435.278L405.54 347.976L466.287 345.922ZM429.478 305.095C429.478 310.059 428.577 314.681 426.776 318.961C424.974 323.24 422.486 326.963 419.311 330.13C416.222 333.297 412.533 335.779 408.243 337.577C404.038 339.374 399.534 340.273 394.729 340.273C390.954 340.273 387.736 339.588 385.076 338.218C382.417 336.849 380.143 335.137 378.255 333.083C376.453 331.029 374.866 328.803 373.493 326.407C372.206 324.01 371.005 321.785 369.89 319.731C368.774 317.677 367.616 315.965 366.415 314.595C365.299 313.226 364.012 312.541 362.554 312.541C361.61 312.541 360.795 312.841 360.108 313.44C359.422 313.953 358.864 314.595 358.435 315.366C358.092 316.136 357.835 316.992 357.663 317.933C357.491 318.875 357.406 319.731 357.406 320.501C357.406 323.069 357.706 325.594 358.307 328.076C358.993 330.473 359.808 332.826 360.752 335.137L329.349 337.705C328.319 334.11 327.59 330.515 327.161 326.92C326.732 323.24 326.517 319.645 326.517 316.136C326.517 310.915 327.204 306.036 328.577 301.5C329.949 296.964 331.966 293.027 334.626 289.689C337.371 286.351 340.717 283.74 344.664 281.857C348.697 279.888 353.373 278.904 358.693 278.904C363.412 278.904 367.316 279.632 370.404 281.087C373.493 282.542 376.067 284.339 378.127 286.479C380.186 288.619 381.773 290.972 382.888 293.54C384.09 296.108 385.162 298.462 386.106 300.601C387.05 302.741 387.951 304.539 388.809 305.994C389.667 307.449 390.782 308.176 392.155 308.176C393.871 308.176 395.201 307.406 396.145 305.865C397.089 304.325 397.56 302.784 397.56 301.243C397.56 298.676 397.046 296.193 396.016 293.797C394.986 291.315 393.871 289.089 392.67 287.121L424.588 281.985C426.046 285.751 427.205 289.56 428.063 293.412C429.006 297.178 429.478 301.072 429.478 305.095Z" fill="black"/>
<path d="M715 397.424C715 409.023 713.653 420.241 710.96 431.076C708.266 441.783 704.354 451.853 699.224 461.286C694.222 470.719 688.065 479.387 680.754 487.29C673.572 495.066 665.427 501.758 656.321 507.366C647.342 512.975 637.53 517.373 626.885 520.56C616.239 523.619 604.952 525.148 593.024 525.148C581.48 525.148 570.45 523.683 559.932 520.751C549.543 517.819 539.795 513.74 530.689 508.514C521.582 503.16 513.31 496.786 505.87 489.393C498.56 481.872 492.275 473.587 487.016 464.536C481.886 455.359 477.845 445.543 474.895 435.091C472.074 424.638 470.663 413.74 470.663 402.395C470.663 391.305 472.009 380.47 474.703 369.89C477.396 359.183 481.244 349.113 486.246 339.68C491.377 330.247 497.533 321.579 504.716 313.676C511.899 305.773 519.915 298.953 528.765 293.217C537.743 287.481 547.427 283.019 557.816 279.833C568.205 276.646 579.172 275.053 590.715 275.053C609.313 275.053 626.243 277.921 641.506 283.657C656.898 289.393 669.98 297.615 680.754 308.322C691.656 318.902 700.058 331.777 705.958 346.946C711.986 361.987 715 378.813 715 397.424ZM629.578 402.395C629.578 396.914 628.744 391.624 627.077 386.525C625.538 381.299 623.229 376.71 620.151 372.758C617.073 368.679 613.225 365.429 608.607 363.007C604.118 360.457 598.924 359.183 593.024 359.183C586.995 359.183 581.609 360.266 576.863 362.433C572.117 364.6 568.013 367.596 564.55 371.42C561.215 375.116 558.65 379.514 556.854 384.613C555.058 389.584 554.161 394.874 554.161 400.483C554.161 405.837 554.93 411.19 556.469 416.544C558.008 421.898 560.317 426.742 563.396 431.076C566.474 435.41 570.258 438.915 574.747 441.592C579.364 444.269 584.687 445.607 590.715 445.607C596.743 445.607 602.13 444.46 606.876 442.166C611.75 439.744 615.854 436.557 619.189 432.605C622.524 428.526 625.089 423.874 626.885 418.647C628.68 413.421 629.578 408.004 629.578 402.395Z" fill="black"/>
</svg>
