<svg width="199" height="71" viewBox="0 0 199 71" fill="none" xmlns="http://www.w3.org/2000/svg">
<path d="M2.61425 20.7605C0.744303 21.2502 -0.374646 23.163 0.115011 25.033L8.09443 55.5056C8.58409 57.3755 10.4969 58.4945 12.3669 58.0048C14.2368 57.5151 15.3558 55.6023 14.8661 53.7324L7.7733 26.6456L34.86 19.5528C36.73 19.0631 37.8489 17.1503 37.3593 15.2803C36.8696 13.4104 34.9568 12.2914 33.0868 12.7811L2.61425 20.7605ZM53.7253 53.526L51.9581 56.5471L53.7253 53.526ZM3.50085 24.1464L1.73362 27.1674L8.01168 30.8399L9.77891 27.8188L11.5461 24.7977L5.26808 21.1253L3.50085 24.1464ZM22.335 35.1637L20.5678 38.1848L33.1239 45.5297L34.8911 42.5087L36.6584 39.4876L24.1023 32.1427L22.335 35.1637ZM47.4473 49.8536L45.68 52.8746L51.9581 56.5471L53.7253 53.526L55.4925 50.505L49.2145 46.8325L47.4473 49.8536ZM53.7253 53.526L51.9581 56.5471C54.1236 57.8138 56.3141 58.9907 58.5256 60.0791L60.0711 56.9388L61.6165 53.7984C59.5557 52.7843 57.5132 51.6869 55.4925 50.505L53.7253 53.526ZM73.4057 62.3287L72.3368 65.6615C77.1264 67.1977 81.9702 68.3549 86.8308 69.1465L87.3934 65.692L87.9561 62.2375C83.4357 61.5013 78.9305 60.4251 74.4747 58.9959L73.4057 62.3287ZM101.722 66.9422L101.677 70.4419C106.671 70.5056 111.643 70.1973 116.55 69.5321L116.08 66.0638L115.61 62.5955C111.041 63.2149 106.413 63.5018 101.767 63.4425L101.722 66.9422ZM130.156 63.0939L131.127 66.4566C135.903 65.078 140.574 63.3523 145.099 61.2945L143.65 58.1085L142.201 54.9225C137.986 56.8393 133.634 58.447 129.185 59.7311L130.156 63.0939ZM156.276 51.2133L158.174 54.1542C162.335 51.4688 166.312 48.4711 170.065 45.1755L167.756 42.5455L165.447 39.9155C161.955 42.9819 158.253 45.7722 154.378 48.2725L156.276 51.2133ZM177.83 32.2798L180.503 34.5387C183.682 30.777 186.61 26.7486 189.25 22.4673L186.271 20.6301L183.292 18.7929C180.836 22.7757 178.112 26.5226 175.156 30.0209L177.83 32.2798ZM192.898 7.86514L196.114 9.24635C197.087 6.98155 197.986 4.66316 198.808 2.29276L195.501 1.14636L192.194 -3.89814e-05C191.427 2.21177 190.589 4.37351 189.682 6.48393L192.898 7.86514Z" fill="black"/>
</svg>
