<svg width="279" height="87" viewBox="0 0 279 87" fill="none" xmlns="http://www.w3.org/2000/svg">
<path d="M266.763 48.8417C266.033 50.6317 263.991 51.4912 262.201 50.7616L233.031 38.8708C231.241 38.1411 230.382 36.0985 231.111 34.3086C231.841 32.5186 233.884 31.659 235.674 32.3887L261.602 42.9583L272.172 17.0298C272.901 15.2398 274.944 14.3803 276.734 15.1099C278.524 15.8396 279.383 17.8822 278.654 19.6722L266.763 48.8417ZM141.45 30.0866L144.167 32.2929V32.2929L141.45 30.0866ZM119.999 56.5021L117.282 54.2958L119.999 56.5021ZM263.522 47.5205L260.296 48.8781C259.365 46.6664 258.342 44.5398 257.233 42.499L260.309 40.8285L263.385 39.158C264.604 41.4032 265.728 43.7387 266.748 46.163L263.522 47.5205ZM251.95 28.6168L249.283 30.883C246.193 27.2463 242.775 24.0102 239.102 21.1845L241.236 18.4104L243.37 15.6363C247.427 18.7576 251.204 22.3331 254.618 26.3505L251.95 28.6168ZM228.628 10.6592L227.114 13.8147C222.859 11.7728 218.411 10.1805 213.854 9.05023L214.697 5.65314L215.539 2.25606C220.554 3.4998 225.452 5.25302 230.142 7.50368L228.628 10.6592ZM200.042 3.56028L199.9 7.0574C195.209 6.86674 190.494 7.15054 185.837 7.91969L185.267 4.46648L184.696 1.01326C189.829 0.16547 195.022 -0.146637 200.185 0.0631638L200.042 3.56028ZM170.993 8.37864L172.266 11.6392C167.948 13.3238 163.761 15.4737 159.776 18.1L157.85 15.1777L155.924 12.2554C160.326 9.35421 164.952 6.97887 169.721 5.11806L170.993 8.37864ZM146.407 24.5615L148.892 27.0261C147.257 28.6751 145.679 30.4302 144.167 32.2929L141.45 30.0866L138.732 27.8803C140.39 25.8385 142.123 23.9109 143.922 22.0969L146.407 24.5615ZM141.45 30.0866L144.167 32.2929L138.804 38.8968L136.087 36.6905L133.37 34.4842L138.732 27.8803L141.45 30.0866ZM125.362 49.8982L128.079 52.1045L122.716 58.7084L119.999 56.5021L117.282 54.2958L122.645 47.6919L125.362 49.8982ZM119.999 56.5021L122.716 58.7084C121.178 60.603 119.572 62.3998 117.905 64.0988L115.407 61.6478L112.908 59.1969C114.421 57.6544 115.881 56.0209 117.282 54.2958L119.999 56.5021ZM104.874 70.4962L106.855 73.382C102.822 76.149 98.5825 78.4688 94.203 80.3464L92.8239 77.1295L91.4448 73.9127C95.4084 72.2134 99.2448 70.1143 102.894 67.6103L104.874 70.4962ZM79.7118 81.2928L80.4426 84.7156C75.7136 85.7254 70.9106 86.2718 66.1069 86.3612L66.0418 82.8618L65.9767 79.3624C70.3369 79.2813 74.6939 78.7853 78.9809 77.8699L79.7118 81.2928ZM52.323 81.8085L51.7244 85.2569C46.9907 84.4353 42.3273 83.162 37.8079 81.4421L39.0527 78.1709L40.2976 74.8998C44.3946 76.4589 48.6248 77.6142 52.9215 78.36L52.323 81.8085ZM26.7299 72.0548L24.8759 75.0234C20.8343 72.4993 16.9983 69.5594 13.4358 66.2093L15.8335 63.6596L18.2312 61.1098C21.4551 64.1416 24.9262 66.8018 28.5839 69.0862L26.7299 72.0548ZM6.77527 53.3071L3.93185 55.3479C2.54407 53.4143 1.2312 51.3934 -3.05176e-05 49.2862L3.02197 47.5205L6.04398 45.7548C7.16504 47.6736 8.35878 49.5108 9.6187 51.2663L6.77527 53.3071Z" fill="black"/>
</svg>
