<svg width="34" height="36" viewBox="0 0 34 36" fill="none" xmlns="http://www.w3.org/2000/svg">
<path d="M7.34341 7.34316L8.9108 19.4905C8.99163 20.1169 9.5754 20.5517 10.1987 20.4497L31.7067 16.9302C32.2467 16.8418 32.6431 16.3753 32.6431 15.8281V8.45989C32.6431 7.84314 32.1431 7.34316 31.5264 7.34316H7.34341Z" fill="#E17206"/>
<path d="M1.34009 1.33984L7.34341 7.34316M7.34341 7.34316L8.9108 19.4905C8.99163 20.1169 9.5754 20.5517 10.1987 20.4497L31.7067 16.9302C32.2467 16.8418 32.6431 16.3753 32.6431 15.8281V8.45989C32.6431 7.84314 32.1431 7.34316 31.5264 7.34316H7.34341Z" stroke="#E17206" stroke-width="2.68015" stroke-linecap="round"/>
<path d="M32.6431 25.7817H20.2077H7.77222" stroke="#E17206" stroke-width="2.68015" stroke-linecap="round"/>
<circle cx="10.7739" cy="32.2137" r="3.09545" fill="#E17206" stroke="#E17206" stroke-width="0.670037"/>
<circle cx="29.6414" cy="32.2137" r="3.09545" fill="#E17206" stroke="#E17206" stroke-width="0.670037"/>
</svg>
