<svg width="264" height="372" viewBox="0 0 264 372" fill="none" xmlns="http://www.w3.org/2000/svg">
<path d="M197.702 368.336C200.198 371.583 204.855 372.192 208.103 369.696L261.028 329.009C264.276 326.512 264.885 321.856 262.388 318.608C259.891 315.36 255.234 314.751 251.987 317.248L204.942 353.414L168.776 306.369C166.28 303.122 161.623 302.513 158.375 305.009C155.127 307.506 154.519 312.163 157.015 315.411L197.702 368.336ZM219.568 241.543L226.923 242.505L219.568 241.543ZM203.582 363.815L210.937 364.777L212.935 349.493L205.58 348.531L198.226 347.569L196.227 362.853L203.582 363.815ZM209.577 317.963L216.932 318.925L220.928 288.357L213.573 287.395L206.218 286.434L202.222 317.002L209.577 317.963ZM217.57 256.827L224.924 257.789L226.923 242.505L219.568 241.543L212.213 240.582L210.215 255.866L217.57 256.827ZM219.568 241.543L226.923 242.505C227.612 237.233 228.105 231.986 228.408 226.772L221.003 226.341L213.598 225.911C213.316 230.77 212.856 235.663 212.213 240.582L219.568 241.543ZM220.541 195.864L227.929 195.205C226.982 184.588 225.251 174.177 222.792 164.034L215.584 165.781L208.375 167.529C210.662 176.962 212.272 186.645 213.153 196.523L220.541 195.864ZM206.219 136.775L213.09 133.978C209.099 124.174 204.402 114.722 199.059 105.688L192.675 109.463L186.29 113.239C191.264 121.65 195.636 130.448 199.349 139.571L206.219 136.775ZM175.279 84.426L181.045 79.7602C174.418 71.5707 167.2 63.8721 159.454 56.7322L154.427 62.186L149.4 67.6399C156.615 74.2911 163.34 81.4629 169.512 89.0917L175.279 84.426ZM130.561 43.2144L134.74 37.086C126.068 31.1733 116.938 25.877 107.411 21.2639L104.179 27.9398L100.946 34.6158C109.81 38.9081 118.309 43.8376 126.383 49.3428L130.561 43.2144ZM75.8346 16.7281L78.0425 9.64691C68.079 6.54025 57.8009 4.14238 47.2662 2.51433L46.1334 9.84473L45.0005 17.1751C54.801 18.6897 64.3606 20.92 73.6266 23.8092L75.8346 16.7281ZM15.7491 7.42167L15.7963 0.00442551C10.5728 -0.0288742 5.30525 0.125543 -5.14139e-05 0.474021L0.48611 7.87548L0.972259 15.2769C5.92261 14.9517 10.8343 14.8079 15.7018 14.8389L15.7491 7.42167Z" fill="black"/>
</svg>
